<svg width="64" height="62" viewBox="0 0 64 62" fill="none" xmlns="http://www.w3.org/2000/svg">
<path d="M4.875 24.5002C4.875 24.5002 2.875 21.5002 2.375 19.5002C1.875 17.5002 1.875 12.5002 2.375 10.0002C2.875 7.50024 6.375 3.50024 6.375 3.50024C6.375 3.50024 8.875 2.00024 11.375 2.00024C13.875 2.00024 14.375 2.50024 15.875 3.50024C17.375 4.50024 19.875 7.00024 20.875 9.00024C21.875 11.0002 24.875 18.5002 24.875 18.5002C24.875 18.5002 27.375 26.0002 28.375 29.5002C29.375 33.0002 29.875 42.0002 29.875 42.0002L31.375 61.0002L32.875 42.0002L35.375 29.5002C35.375 29.5002 36.875 22.5002 37.875 19.5002C38.875 16.5002 41.875 10.0002 41.875 10.0002C41.875 10.0002 44.375 5.00024 46.375 3.50024C48.375 2.00024 48.875 2.00024 51.875 2.00024C54.875 2.00024 56.375 2.50024 57.875 3.50024C59.375 4.50024 60.375 6.50024 60.875 9.00024C61.375 11.5002 60.875 16.5002 60.875 16.5002L58.875 24.5002" stroke="#FB4641" stroke-width="4"/>
</svg>
