<svg width="71" height="54" viewBox="0 0 71 54" fill="none" xmlns="http://www.w3.org/2000/svg">
<path d="M68.2922 9.11111C68.2922 9.11111 62.2922 5.61111 51.7922 3.11111C41.2922 0.611111 25.2922 3.11111 25.2922 3.11111C21.6321 3.77659 17.9957 4.67358 14.6133 6.22238C11.7255 7.54469 9.62889 8.78412 8.16426 9.78153C6.1328 11.165 4.79092 13.257 3.80579 15.5087C2.47779 18.5441 1.63672 21.8451 2.15482 25.1176C2.3743 26.5038 2.72663 27.734 3.29224 28.1111C4.79224 29.1111 6.79224 31.6111 8.79224 32.1111C8.89181 32.136 8.99882 32.1609 9.11227 32.1857C13.4652 33.1384 18.3127 32.8947 21.7922 30.1111C24.2922 28.1111 24.2922 28.6111 25.2922 24.6111C25.4482 23.9871 25.5799 23.3874 25.691 22.8196C26.333 19.5399 24.8764 16.3329 22.3958 14.0935M22.2922 14L22.3958 14.0935M2.29224 44.6111L9.59681 47.6337C14.365 49.6067 19.41 50.8292 24.5525 51.2578C27.3739 51.4929 30.2102 51.4878 33.0307 51.2425L40.2922 50.6111L47.3322 49.5551C49.3011 49.2598 51.2373 48.7775 53.1147 48.1149L54.839 47.5064C57.4506 46.5846 59.863 45.1742 61.9472 43.3504L64.1823 41.3948C65.886 39.9041 67.1231 37.9532 67.745 35.7765L67.8838 35.2906C68.4743 33.2239 68.3967 31.0234 67.6622 29.0034C67.091 27.4326 66.1425 26.0263 64.9001 24.9081L64.4146 24.4712C62.7037 22.9314 60.5803 21.9246 58.3052 21.5746L58.1992 21.5583C56.2924 21.265 54.3424 21.4602 52.5316 22.1257L52.2063 22.2452C49.9958 23.0577 48.126 24.5956 46.9023 26.6078C46.4969 27.2746 46.1677 27.9847 45.9209 28.725L45.7329 29.2892C44.8112 32.0542 45.0372 35.0734 46.3601 37.6703L46.3975 37.7437C46.9888 38.9043 47.7919 39.9441 48.7655 40.8095C50.0946 41.991 51.7034 42.8136 53.4394 43.1993L53.9549 43.3139C54.8438 43.5114 55.7516 43.6111 56.6622 43.6111H61.7922M22.3958 14.0935L17.7922 11C17.7922 11 15.7922 10 12.2922 10C8.79224 10 6.79224 10.5 6.79224 10.5" stroke="#3090FF" stroke-width="4"/>
</svg>
